<svg xmlns="http://www.w3.org/2000/svg" version="1.1" xmlns:xlink="http://www.w3.org/1999/xlink" xmlns:svgjs="http://svgjs.dev/svgjs" width="128" height="128" viewBox="0 0 128 128"><g transform="matrix(0.8046875,0,0,0.8046875,12.273515773269452,3.9540069901315746)"><svg viewBox="0 0 81 95" data-background-color="#7a26c1" preserveAspectRatio="xMidYMid meet" height="150" width="128" xmlns="http://www.w3.org/2000/svg" xmlns:xlink="http://www.w3.org/1999/xlink"><defs></defs><g id="tight-bounds" transform="matrix(1,0,0,1,0.1781089550016901,-0.24049999999999727)"><svg viewBox="0 0 80.6437820899966 95.48100000000001" height="95.48100000000001" width="80.6437820899966"><g><svg viewBox="0 0 80.6437820899966 95.48100000000001" height="95.48100000000001" width="80.6437820899966"><g><svg viewBox="0 0 80.6437820899966 95.48100000000001" height="95.48100000000001" width="80.6437820899966"><g><svg viewBox="0 0 80.6437820899966 95.48100000000001" height="95.48100000000001" width="80.6437820899966"><g><svg viewBox="0 0 80.6437820899966 95.48100000000001" height="95.48100000000001" width="80.6437820899966"><g><svg viewBox="0 0 80.6437820899966 95.48100000000001" height="95.48100000000001" width="80.6437820899966"><g><svg xmlns="http://www.w3.org/2000/svg" xmlns:xlink="http://www.w3.org/1999/xlink" version="1.1" x="0" y="0" viewBox="10.900000000000002 3.7 78.12601295885763 92.5" style="enable-background:new 0 0 100 100;" xml:space="preserve" height="95.48100000000001" width="80.6437820899966" class="icon-icon-0" data-fill-palette-color="accent" id="icon-0"><g fill="#ffffff" data-fill-palette-color="accent"><path d="M70.4 70.2H29.6c-1.5 0-2.8 1.2-2.8 2.8s1.2 2.8 2.8 2.8h40.8c1.5 0 2.8-1.2 2.8-2.8S71.9 70.2 70.4 70.2z" fill="#ffffff" data-fill-palette-color="accent"></path><path d="M26.8 62.3c0 1.5 1.2 2.8 2.8 2.8h40.8c1.5 0 2.8-1.2 2.8-2.8 0-1.5-1.2-2.8-2.8-2.8H29.6C28.1 59.6 26.8 60.8 26.8 62.3z" fill="#ffffff" data-fill-palette-color="accent"></path><path d="M29.6 54.4h22.2c1.5 0 2.8-1.2 2.8-2.8s-1.2-2.8-2.8-2.8H29.6c-1.5 0-2.8 1.2-2.8 2.8S28.1 54.4 29.6 54.4z" fill="#ffffff" data-fill-palette-color="accent"></path><path d="M88.6 32.2c-0.1-0.3-0.3-0.5-0.6-0.7L61.4 4.8c-0.2-0.2-0.5-0.4-0.7-0.6-0.5-0.3-1.2-0.5-1.8-0.5H25.1c-7.8 0-14.2 6.4-14.2 14.2V82c0 7.8 6.4 14.2 14.2 14.2h49.7c7.8 0 14.2-6.4 14.2-14.2V34C89.1 33.4 88.9 32.8 88.6 32.2zM60.7 14.2l18 18H67.8c-3.9 0-7.1-3.2-7.1-7.1V14.2zM82 82c0 3.9-3.2 7.1-7.1 7.1H25.1c-3.9 0-7.1-3.2-7.1-7.1V18c0-3.9 3.2-7.1 7.1-7.1h28.4v14.2c0 7.8 6.4 14.2 14.2 14.2H82V82z" fill="#ffffff" data-fill-palette-color="accent"></path></g></svg><g></g></g></svg></g></svg></g></svg></g></svg></g></svg></g></svg><rect width="80.6437820899966" height="95.48100000000001" fill="none" stroke="none" visibility="hidden"></rect></g></svg></g></svg>
